<?xml version="1.0" encoding="UTF-8" standalone="no"?>
<!-- Created with Inkscape (http://www.inkscape.org/) -->

<svg
   xmlns:dc="http://purl.org/dc/elements/1.1/"
   xmlns:cc="http://creativecommons.org/ns#"
   xmlns:rdf="http://www.w3.org/1999/02/22-rdf-syntax-ns#"
   xmlns:svg="http://www.w3.org/2000/svg"
   xmlns="http://www.w3.org/2000/svg"
   xmlns:sodipodi="http://sodipodi.sourceforge.net/DTD/sodipodi-0.dtd"
   xmlns:inkscape="http://www.inkscape.org/namespaces/inkscape"
   width="204"
   height="230"
   id="svg4284"
   version="1.1"
   inkscape:version="0.48.5 r10040"
   inkscape:export-filename="/home/julius/Downloads/coverIIII.png"
   inkscape:export-xdpi="90"
   inkscape:export-ydpi="90"
   sodipodi:docname="Neues Dokument 9">
  <defs
     id="defs4286">
    <filter
       id="filter3933"
       color-interpolation-filters="sRGB"
       inkscape:menu-tooltip="Render in shades of gray by reducing saturation to zero"
       inkscape:menu="Color"
       height="1"
       width="1"
       y="0"
       x="0"
       inkscape:label="Desaturate">
      <feColorMatrix
         id="feColorMatrix3935"
         values="0"
         type="saturate" />
    </filter>
  </defs>
  <sodipodi:namedview
     id="base"
     pagecolor="#030000"
     bordercolor="#666666"
     borderopacity="1.0"
     inkscape:pageopacity="0"
     inkscape:pageshadow="2"
     inkscape:zoom="2.8"
     inkscape:cx="121.89043"
     inkscape:cy="143.16825"
     inkscape:document-units="px"
     inkscape:current-layer="g5276"
     showgrid="true"
     inkscape:snap-to-guides="false"
     inkscape:snap-grids="false"
     inkscape:window-width="1516"
     inkscape:window-height="1055"
     inkscape:window-x="-2"
     inkscape:window-y="21"
     inkscape:window-maximized="0">
    <inkscape:grid
       type="xygrid"
       id="grid4292"
       empspacing="5"
       visible="true"
       enabled="true"
       snapvisiblegridlinesonly="true"
       dotted="true"
       spacingx="0.5px"
       spacingy="0.5px" />
  </sodipodi:namedview>
  <metadata
     id="metadata4289">
    <rdf:RDF>
      <cc:Work
         rdf:about="">
        <dc:format>image/svg+xml</dc:format>
        <dc:type
           rdf:resource="http://purl.org/dc/dcmitype/StillImage" />
        <dc:title></dc:title>
      </cc:Work>
    </rdf:RDF>
  </metadata>
  <g
     inkscape:label="Ebene 1"
     inkscape:groupmode="layer"
     id="layer1"
     transform="translate(0,-822.36218)">
    <g
       id="g4532"
       transform="matrix(2.3085978,0,0,2.3085978,2.7314483,838.82292)">
      <g
         id="g3133" />
      <g
         id="g4640"
         transform="matrix(1.0356912,-0.02467039,0.02467039,1.0356912,-4.5218748,-4.5070843)">
        <g
           id="g5276"
           transform="matrix(0.96798482,0.12132986,-0.12132986,0.96798482,8.3262561,3.3865515)">
          <g
             id="g5310"
             transform="matrix(0.90618003,0,0,0.90618003,4.1101213,3.8407508)">
            <g
               id="layer2"
               transform="matrix(0.99467624,-0.10304939,0.10304939,0.99467624,-5.2011443,-3.1910545)"
               inkscape:label="Ebene">
              <path
                 id="path3837"
                 inkscape:connector-curvature="0"
                 d="M 43,4 C 19.252,4 0,23.252 0,47 V 87.791 C 0,89.019 0.981,90 2.21,90 H 43 83.79 c 1.229,0 2.209,-0.981 2.209,-2.209 V 47 C 85.999,23.252 66.748,4 43,4 z"
                 style="fill:#f9f9f9" />
            </g>
            <g
               transform="matrix(0.99467624,-0.10304939,0.10304939,0.99467624,-4.7889468,0.78765047)"
               id="g3099">
              <path
                 inkscape:connector-curvature="0"
                 d="m 6.707,40.09 c 0.092,0.774 0.799,1.493 1.572,1.598 0,0 19.807,2.692 36.638,2.692 16.838,0 33.926,-2.022 33.926,-2.022 0.773,-0.091 1.564,-0.784 1.76,-1.539 0,0 4.904,-19.099 -35.648,-19.099 C 4.523,21.721 6.707,40.09 6.707,40.09 z"
                 id="path3101"
                 style="fill:#f2f2f2;fill-opacity:1" />
              <path
                 inkscape:connector-curvature="0"
                 d="m 6.707,40.09 c 0.092,0.774 0.799,1.493 1.572,1.598 0,0 19.807,2.692 36.638,2.692 16.838,0 33.926,-2.022 33.926,-2.022 0.773,-0.091 1.564,-0.784 1.76,-1.539 0,0 4.904,-19.099 -35.648,-19.099 C 4.523,21.721 6.707,40.09 6.707,40.09 z"
                 id="path3103"
                 style="fill:none;stroke:#f2f2f2;stroke-width:1.5;stroke-linecap:round;stroke-linejoin:round;stroke-opacity:1" />
            </g>
            <g
               transform="matrix(0.99467624,-0.10304939,0.10304939,0.99467624,-4.7889468,0.78765047)"
               id="g3105">
              <path
                 inkscape:connector-curvature="0"
                 clip-rule="evenodd"
                 d="m 30.739,49.863 c -4.612,0 -8.365,-3.754 -8.365,-8.367 0,-4.612 3.752,-8.364 8.365,-8.364 4.613,0 8.364,3.752 8.364,8.364 0,4.613 -3.752,8.367 -8.364,8.367 l 0,0 z"
                 id="path3107"
                 style="fill:#ffffff;fill-opacity:1;fill-rule:evenodd" />
              <path
                 inkscape:connector-curvature="0"
                 d="m 30.739,33.632 c 4.344,0 7.864,3.521 7.864,7.864 0,4.344 -3.52,7.867 -7.864,7.867 -4.343,0 -7.865,-3.523 -7.865,-7.867 0,-4.343 3.522,-7.864 7.865,-7.864 m 0,-1 c -4.888,0 -8.865,3.977 -8.865,8.864 0,4.889 3.977,8.867 8.865,8.867 4.888,0 8.864,-3.979 8.864,-8.867 0,-4.887 -3.976,-8.864 -8.864,-8.864 l 0,0 z"
                 id="path3109"
                 style="fill:#f9f9f9;fill-opacity:1" />
            </g>
            <g
               transform="matrix(0.99467624,-0.10304939,0.10304939,0.99467624,-4.7889468,0.78765047)"
               id="g3111">
              <path
                 inkscape:connector-curvature="0"
                 clip-rule="evenodd"
                 d="m 57.1,50.558 c -4.612,0 -8.364,-3.753 -8.364,-8.366 0,-4.613 3.752,-8.365 8.364,-8.365 4.612,0 8.365,3.752 8.365,8.365 0,4.613 -3.753,8.366 -8.365,8.366 l 0,0 z"
                 id="path3113"
                 style="fill:#ffffff;fill-opacity:1;fill-rule:evenodd" />
              <path
                 inkscape:connector-curvature="0"
                 d="m 57.1,34.327 c 4.341,0 7.865,3.521 7.865,7.865 0,4.344 -3.524,7.866 -7.865,7.866 -4.345,0 -7.864,-3.522 -7.864,-7.866 0,-4.345 3.519,-7.865 7.864,-7.865 m 0,-1 c -4.889,0 -8.864,3.977 -8.864,8.865 0,4.889 3.976,8.866 8.864,8.866 4.888,0 8.865,-3.978 8.865,-8.866 0,-4.889 -3.977,-8.865 -8.865,-8.865 l 0,0 z"
                 id="path3115"
                 style="fill:#f9f9f9;fill-opacity:1" />
            </g>
            <g
               transform="matrix(0.99467624,-0.10304939,0.10304939,0.99467624,-4.7889468,0.78765047)"
               id="g3117">
              <path
                 style="fill:#f2f2f2;fill-opacity:1;fill-rule:evenodd"
                 inkscape:connector-curvature="0"
                 clip-rule="evenodd"
                 d="m 38.409,43.192 c 0.12,-0.546 0.194,-1.112 0.194,-1.696 0,-4.343 -3.52,-7.864 -7.864,-7.864 -4.343,0 -7.865,3.521 -7.865,7.864 0,0.3 0.055,0.582 0.088,0.871 2.761,0.22 8.179,0.594 15.447,0.825 z"
                 id="path3119" />
            </g>
            <g
               transform="matrix(0.99467624,-0.10304939,0.10304939,0.99467624,-4.7889468,0.78765047)"
               id="g3121">
              <path
                 style="fill:#f2f2f2;fill-opacity:1;fill-rule:evenodd"
                 inkscape:connector-curvature="0"
                 clip-rule="evenodd"
                 d="m 64.882,43.006 c 0.028,-0.272 0.083,-0.535 0.083,-0.814 0,-4.344 -3.524,-7.865 -7.865,-7.865 -4.345,0 -7.864,3.521 -7.864,7.865 0,0.404 0.057,0.795 0.118,1.184 6.746,-0.007 12.503,-0.228 15.528,-0.37 z"
                 id="path3123" />
            </g>
            <circle
               transform="matrix(0.99467624,-0.10304939,0.10304939,0.99467624,-4.7889468,0.78765047)"
               d="m 34.121999,41.498001 c 0,2.147283 -1.740717,3.888 -3.888,3.888 -2.147283,0 -3.888,-1.740717 -3.888,-3.888 0,-2.147283 1.740717,-3.888 3.888,-3.888 2.147283,0 3.888,1.740717 3.888,3.888 z"
               style="fill:#231f20"
               sodipodi:ry="3.888"
               sodipodi:rx="3.888"
               sodipodi:cy="41.498001"
               sodipodi:cx="30.233999"
               cx="30.233999"
               cy="41.498001"
               r="3.888"
               id="circle3125" />
            <circle
               transform="matrix(0.99467624,-0.10304939,0.10304939,0.99467624,-4.7889468,0.78765047)"
               d="m 60.848999,41.498001 c 0,2.147283 -1.740717,3.888 -3.888,3.888 -2.147284,0 -3.888,-1.740717 -3.888,-3.888 0,-2.147283 1.740716,-3.888 3.888,-3.888 2.147283,0 3.888,1.740717 3.888,3.888 z"
               style="fill:#231f20"
               sodipodi:ry="3.888"
               sodipodi:rx="3.888"
               sodipodi:cy="41.498001"
               sodipodi:cx="56.960999"
               cx="56.960999"
               cy="41.498001"
               r="3.888"
               id="circle3127" />
            <path
               inkscape:connector-curvature="0"
               d="m 42.675906,43.331922 c 0,0 8.462048,-1.368293 6.054736,3.488637 -2.404535,4.85463 -9.181367,3.74105 -10.660688,2.319927 -9.95e-4,1.03e-4 -4.624643,-4.852265 4.605952,-5.808564 z"
               id="path3129"
               style="fill:#ececec;fill-opacity:1" />
            <path
               inkscape:connector-curvature="0"
               d="m 42.849375,44.569636 c 0,0 4.216137,-0.575535 2.918041,0.85887 -1.297101,1.434301 -4.62612,1.266461 -5.324964,0.896507 0,0 -2.182513,-1.279907 2.406923,-1.755377 z"
               id="path3131"
               style="fill:#e6e6e6;fill-opacity:1" />
            <path
               inkscape:connector-curvature="0"
               d="M 6.1942481,85.356062 C 5.3796083,85.440459 4.6759662,84.868926 4.5916717,84.055281 L 0.38818411,43.481443 C -2.0125575,20.30847 14.886446,-0.49672443 38.059419,-2.8974662 61.231397,-5.2981047 82.037585,11.600796 84.438327,34.773769 l 4.203487,40.573838 c 0.08429,0.813646 -0.487238,1.517288 -1.300883,1.601582 L 6.1942481,85.356062 z M 8.9830266,36.796158 c -0.1591482,0.01649 -0.3100569,0.0834 -0.429369,0.193275 -0.1524412,0.139452 -0.2397044,0.335488 -0.2425545,0.540875 -0.018679,1.236507 0.035533,2.487582 0.1627989,3.716006 l 3.24822,31.353191 c 0.139529,1.346792 1.350321,2.330255 2.698107,2.190624 l 62.70439,-6.496234 c 1.346792,-0.139529 2.329261,-1.350217 2.189733,-2.697009 l -3.24822,-31.353189 c -0.127472,-1.230415 -0.329684,-2.464145 -0.601143,-3.667579 -0.045,-0.201435 -0.171486,-0.374321 -0.349278,-0.47956 -0.139303,-0.08308 -0.300722,-0.117636 -0.459871,-0.101151 -0.04277,0.0044 -0.08613,0.01294 -0.128174,0.02434 -9.303091,2.643752 -20.521567,4.693722 -32.440773,5.928564 -11.909258,1.233809 -23.310817,1.52629 -32.9725333,0.844293 -0.045379,-0.0013 -0.088562,-8.78e-4 -0.1313331,0.0036 l 0,0 z"
               id="path3135"
               style="fill:#cccccc" />
            <path
               inkscape:connector-curvature="0"
               d="M 38.136706,-2.151459 C 60.897883,-4.5095381 81.33424,12.089879 83.69232,34.851056 l 4.203487,40.573839 c 0.04091,0.394886 -0.237277,0.737376 -0.632163,0.778287 L 46.689805,80.406669 6.1169611,84.610054 C 5.7210799,84.651068 5.3785895,84.372881 5.3376789,83.977994 L 1.1341913,43.404155 C -1.2238879,20.642978 15.374534,0.20672328 38.136706,-2.151459 M 14.496521,75.536239 45.848716,72.288122 77.200911,69.040005 c 1.758588,-0.182191 3.040747,-1.760721 2.858453,-3.520303 l -3.24822,-31.353189 c -0.130564,-1.260255 -0.337856,-2.523619 -0.616281,-3.755486 -0.09088,-0.401773 -0.342974,-0.748642 -0.697562,-0.959224 -0.278607,-0.166175 -0.601447,-0.235273 -0.920737,-0.202194 -0.08554,0.0089 -0.171358,0.02479 -0.255354,0.04857 -9.263031,2.632565 -20.437159,4.67392 -32.313593,5.904329 -11.866487,1.229379 -23.222874,1.521202 -32.8419892,0.842835 -0.087088,-0.0061 -0.1743465,-0.004 -0.2598886,0.0048 -0.3182964,0.03297 -0.6200107,0.167785 -0.8597327,0.386653 -0.3038876,0.278801 -0.4795116,0.669981 -0.4851089,1.08175 -0.019562,1.26676 0.036639,2.546782 0.1669969,3.805048 l 3.2482195,31.353189 c 0.182192,1.758589 1.761819,3.041639 3.520406,2.859448 M 37.982132,-3.6434733 C 14.36056,-1.1962563 -2.80504,19.937158 -0.35782304,43.558729 L 3.8456646,84.132568 c 0.1265446,1.221462 1.2034135,2.096149 2.4258706,1.969501 L 46.844379,81.898684 87.417224,77.6953 c 1.222457,-0.126648 2.096148,-1.203414 1.969602,-2.424877 L 85.18334,34.696585 C 82.736122,11.075013 61.603703,-6.0906902 37.982132,-3.6434733 l 0,0 z M 14.341947,74.044224 c -0.943948,0.09779 -1.777019,-0.577956 -1.874813,-1.521903 L 9.2189145,41.16913 C 9.088454,39.909871 9.0420703,38.705237 9.0592159,37.541274 c 9.2990271,0.655229 20.7660061,0.431372 33.1029761,-0.84675 12.331001,-1.277503 23.605614,-3.40668 32.568946,-5.952901 0.256184,1.133635 0.456742,2.322296 0.586997,3.579567 l 3.24822,31.35319 c 0.09779,0.943947 -0.578059,1.776023 -1.521012,1.873714 l -31.351201,3.248014 -31.352195,3.248116 0,0 z"
               id="path3137"
               style="fill:#ececec;fill-opacity:1" />
            <path
               inkscape:connector-curvature="0"
               d="m 1.3252826,59.804777 2.520382,24.327791 c 0.1265446,1.221462 1.2034135,2.096149 2.4258706,1.969501 L 46.844379,81.898684 87.417224,77.6953 c 1.222457,-0.126648 2.096148,-1.203414 1.969602,-2.424877 L 86.866445,50.942632 1.3252826,59.804777 z"
               id="path3139"
               style="fill:#b3b3b3" />
            <line
               x1="1.3252827"
               y1="59.804779"
               x2="86.866447"
               y2="50.942635"
               id="line3141"
               style="fill:none;stroke:#ececec;stroke-width:1.5;stroke-opacity:1" />
            <rect
               transform="matrix(0.99467624,-0.10304939,0.10304939,0.99467624,0,0)"
               x="25.905382"
               y="64.258965"
               clip-rule="evenodd"
               width="24.499001"
               height="7.8340001"
               id="rect3143"
               style="fill:#f9f9f9;fill-opacity:1;fill-rule:evenodd;stroke:#ececec;stroke-width:1.5;stroke-opacity:1" />
            <g
               transform="matrix(0.99467624,-0.10304939,0.10304939,0.99467624,-4.7889468,0.78765047)"
               id="g3145">
              <path
                 inkscape:connector-curvature="0"
                 clip-rule="evenodd"
                 d="m 26.337,15.394 c -0.509,-0.59 -0.288,-1.074 0.492,-1.074 h 5.866 c 0.78,0 1.417,-0.638 1.417,-1.417 V 2.417 c 0,-0.78 0.637,-1.44 1.417,-1.469 l 6.369,-0.231 c 0.779,-0.028 2.054,-0.013 2.831,0.034 l 6.163,0.371 c 0.778,0.047 1.415,0.723 1.415,1.503 V 13.59 c 0,0.78 0.638,1.417 1.417,1.417 h 6.075 c 0.779,0 1,0.483 0.491,1.073 L 44.53,34.356 c -0.51,0.59 -1.343,0.59 -1.852,0 L 26.337,15.394 z"
                 id="path3147"
                 style="fill:#b3b3b3;fill-rule:evenodd" />
            </g>
            <line
               x1="34.947067"
               y1="49.128235"
               x2="20.272747"
               y2="52.251034"
               id="line3149"
               style="fill:#f2f2f2;stroke:#e6e6e6;stroke-width:1.5;stroke-opacity:1" />
            <line
               x1="37.236835"
               y1="51.773354"
               x2="25.914299"
               y2="58.185272"
               id="line3151"
               style="fill:none;stroke:#e6e6e6;stroke-width:1.5;stroke-opacity:1" />
            <line
               x1="51.426819"
               y1="47.575741"
               x2="66.299789"
               y2="48.932312"
               id="line3153"
               style="fill:#999999;stroke:#e6e6e6;stroke-width:1.5;stroke-opacity:1" />
            <line
               x1="49.625401"
               y1="49.644386"
               x2="60.485039"
               y2="53.757206"
               id="line3155"
               style="fill:none;stroke:#e6e6e6;stroke-width:1.5;stroke-opacity:1" />
            <g
               transform="matrix(0.99467624,-0.10304939,0.10304939,0.99467624,-4.7889468,0.78765047)"
               id="g3157">
              <path
                 inkscape:connector-curvature="0"
                 d="M 43,0 C 32.865,0 23.553,3.509 16.205,9.375 15.911,9.61 15.619,9.85 15.331,10.092 c -0.109,0.092 -0.149,0.136 -0.124,0.136 0.364,0 14.028,-8.799 27.251,-8.895 0.082,0 0.165,-10e-4 0.247,-10e-4 13.727,0 26.986,8.283 27.348,8.283 0.028,0 -0.025,-0.053 -0.169,-0.167 C 62.524,3.538 53.175,0 43,0 l 0,0 z"
                 id="path3159"
                 style="fill:#ececec;fill-opacity:1" />
            </g>
          </g>
        </g>
      </g>
    </g>
  </g>
</svg>
