<?xml version="1.0" encoding="UTF-8" standalone="no"?>
<!-- Created with Inkscape (http://www.inkscape.org/) -->

<svg
   xmlns:dc="http://purl.org/dc/elements/1.1/"
   xmlns:cc="http://creativecommons.org/ns#"
   xmlns:rdf="http://www.w3.org/1999/02/22-rdf-syntax-ns#"
   xmlns:svg="http://www.w3.org/2000/svg"
   xmlns="http://www.w3.org/2000/svg"
   xmlns:sodipodi="http://sodipodi.sourceforge.net/DTD/sodipodi-0.dtd"
   xmlns:inkscape="http://www.inkscape.org/namespaces/inkscape"
   width="204"
   height="230"
   id="svg4284"
   version="1.1"
   inkscape:version="0.48.5 r10040"
   inkscape:export-filename="/home/julius/Downloads/coverIIII.png"
   inkscape:export-xdpi="90"
   inkscape:export-ydpi="90"
   sodipodi:docname="cover.svg">
  <defs
     id="defs4286">
    <filter
       id="filter3933"
       color-interpolation-filters="sRGB"
       inkscape:menu-tooltip="Render in shades of gray by reducing saturation to zero"
       inkscape:menu="Color"
       height="1"
       width="1"
       y="0"
       x="0"
       inkscape:label="Desaturate">
      <feColorMatrix
         id="feColorMatrix3935"
         values="0"
         type="saturate" />
    </filter>
  </defs>
  <sodipodi:namedview
     id="base"
     pagecolor="#030000"
     bordercolor="#666666"
     borderopacity="1.0"
     inkscape:pageopacity="0"
     inkscape:pageshadow="2"
     inkscape:zoom="2.8"
     inkscape:cx="75.997573"
     inkscape:cy="143.16825"
     inkscape:document-units="px"
     inkscape:current-layer="g5276"
     showgrid="true"
     inkscape:snap-to-guides="false"
     inkscape:snap-grids="false"
     inkscape:window-width="1516"
     inkscape:window-height="1055"
     inkscape:window-x="-2"
     inkscape:window-y="21"
     inkscape:window-maximized="0">
    <inkscape:grid
       type="xygrid"
       id="grid4292"
       empspacing="5"
       visible="true"
       enabled="true"
       snapvisiblegridlinesonly="true"
       dotted="true"
       spacingx="0.5px"
       spacingy="0.5px" />
  </sodipodi:namedview>
  <metadata
     id="metadata4289">
    <rdf:RDF>
      <cc:Work
         rdf:about="">
        <dc:format>image/svg+xml</dc:format>
        <dc:type
           rdf:resource="http://purl.org/dc/dcmitype/StillImage" />
        <dc:title />
      </cc:Work>
    </rdf:RDF>
  </metadata>
  <g
     inkscape:label="Ebene 1"
     inkscape:groupmode="layer"
     id="layer1"
     transform="translate(0,-822.36218)">
    <g
       id="g4532"
       transform="matrix(2.3085978,0,0,2.3085978,2.7314483,838.82292)">
      <g
         id="g3133" />
      <g
         id="g4640"
         transform="matrix(1.0356912,-0.02467039,0.02467039,1.0356912,-4.5218748,-4.5070843)">
        <g
           id="g5276"
           transform="matrix(0.96798482,0.12132986,-0.12132986,0.96798482,8.3262561,3.3865515)">
          <g
             id="g3455"
             transform="matrix(0.90157081,-0.09125727,0.09125727,0.90157081,-0.10836892,4.4936794)">
            <g
               inkscape:label="Ebene"
               transform="translate(0,-4)"
               id="layer2">
              <path
                 d="M 43,4 C 19.252,4 0,23.252 0,47 V 87.791 C 0,89.019 0.981,90 2.21,90 H 43 83.79 c 1.229,0 2.209,-0.981 2.209,-2.209 V 47 C 85.999,23.252 66.748,4 43,4 z"
                 inkscape:connector-curvature="0"
                 id="path3837"
                 style="fill:#70839e" />
            </g>
            <g
               id="g3389">
              <path
                 id="path3391"
                 d="m 6.707,40.09 c 0.092,0.774 0.799,1.493 1.572,1.598 0,0 19.807,2.692 36.638,2.692 16.838,0 33.926,-2.022 33.926,-2.022 0.773,-0.091 1.564,-0.784 1.76,-1.539 0,0 4.904,-19.099 -35.648,-19.099 C 4.523,21.721 6.707,40.09 6.707,40.09 z"
                 inkscape:connector-curvature="0"
                 style="fill:#4e5c6e" />
              <path
                 id="path3393"
                 d="m 6.707,40.09 c 0.092,0.774 0.799,1.493 1.572,1.598 0,0 19.807,2.692 36.638,2.692 16.838,0 33.926,-2.022 33.926,-2.022 0.773,-0.091 1.564,-0.784 1.76,-1.539 0,0 4.904,-19.099 -35.648,-19.099 C 4.523,21.721 6.707,40.09 6.707,40.09 z"
                 inkscape:connector-curvature="0"
                 style="fill:none;stroke:#4e5c6e;stroke-width:1.5;stroke-linecap:round;stroke-linejoin:round" />
            </g>
            <g
               id="g3395">
              <path
                 id="path3397"
                 d="m 30.739,49.863 c -4.612,0 -8.365,-3.754 -8.365,-8.367 0,-4.612 3.752,-8.364 8.365,-8.364 4.613,0 8.364,3.752 8.364,8.364 0,4.613 -3.752,8.367 -8.364,8.367 l 0,0 z"
                 clip-rule="evenodd"
                 inkscape:connector-curvature="0"
                 style="fill:#f1f1f2;fill-rule:evenodd" />
              <path
                 id="path3399"
                 d="m 30.739,33.632 c 4.344,0 7.864,3.521 7.864,7.864 0,4.344 -3.52,7.867 -7.864,7.867 -4.343,0 -7.865,-3.523 -7.865,-7.867 0,-4.343 3.522,-7.864 7.865,-7.864 m 0,-1 c -4.888,0 -8.865,3.977 -8.865,8.864 0,4.889 3.977,8.867 8.865,8.867 4.888,0 8.864,-3.979 8.864,-8.867 0,-4.887 -3.976,-8.864 -8.864,-8.864 l 0,0 z"
                 inkscape:connector-curvature="0"
                 style="fill:#4e5c6e" />
            </g>
            <g
               id="g3401">
              <path
                 id="path3403"
                 d="m 57.1,50.558 c -4.612,0 -8.364,-3.753 -8.364,-8.366 0,-4.613 3.752,-8.365 8.364,-8.365 4.612,0 8.365,3.752 8.365,8.365 0,4.613 -3.753,8.366 -8.365,8.366 l 0,0 z"
                 clip-rule="evenodd"
                 inkscape:connector-curvature="0"
                 style="fill:#f1f1f2;fill-rule:evenodd" />
              <path
                 id="path3405"
                 d="m 57.1,34.327 c 4.341,0 7.865,3.521 7.865,7.865 0,4.344 -3.524,7.866 -7.865,7.866 -4.345,0 -7.864,-3.522 -7.864,-7.866 0,-4.345 3.519,-7.865 7.864,-7.865 m 0,-1 c -4.889,0 -8.864,3.977 -8.864,8.865 0,4.889 3.976,8.866 8.864,8.866 4.888,0 8.865,-3.978 8.865,-8.866 0,-4.889 -3.977,-8.865 -8.865,-8.865 l 0,0 z"
                 inkscape:connector-curvature="0"
                 style="fill:#4e5c6e" />
            </g>
            <g
               id="g3407">
              <path
                 id="path3409"
                 d="m 38.409,43.192 c 0.12,-0.546 0.194,-1.112 0.194,-1.696 0,-4.343 -3.52,-7.864 -7.864,-7.864 -4.343,0 -7.865,3.521 -7.865,7.864 0,0.3 0.055,0.582 0.088,0.871 2.761,0.22 8.179,0.594 15.447,0.825 z"
                 clip-rule="evenodd"
                 inkscape:connector-curvature="0"
                 style="fill:#d0d2d3;fill-rule:evenodd" />
            </g>
            <g
               id="g3411">
              <path
                 id="path3413"
                 d="m 64.882,43.006 c 0.028,-0.272 0.083,-0.535 0.083,-0.814 0,-4.344 -3.524,-7.865 -7.865,-7.865 -4.345,0 -7.864,3.521 -7.864,7.865 0,0.404 0.057,0.795 0.118,1.184 6.746,-0.007 12.503,-0.228 15.528,-0.37 z"
                 clip-rule="evenodd"
                 inkscape:connector-curvature="0"
                 style="fill:#d0d2d3;fill-rule:evenodd" />
            </g>
            <circle
               id="circle3415"
               r="3.888"
               cy="41.498001"
               cx="30.233999"
               sodipodi:cx="30.233999"
               sodipodi:cy="41.498001"
               sodipodi:rx="3.888"
               sodipodi:ry="3.888"
               style="fill:#231f20"
               d="m 34.121999,41.498001 c 0,2.147283 -1.740717,3.888 -3.888,3.888 -2.147283,0 -3.888,-1.740717 -3.888,-3.888 0,-2.147283 1.740717,-3.888 3.888,-3.888 2.147283,0 3.888,1.740717 3.888,3.888 z" />
            <circle
               id="circle3417"
               r="3.888"
               cy="41.498001"
               cx="56.960999"
               sodipodi:cx="56.960999"
               sodipodi:cy="41.498001"
               sodipodi:rx="3.888"
               sodipodi:ry="3.888"
               style="fill:#231f20"
               d="m 60.848999,41.498001 c 0,2.147283 -1.740717,3.888 -3.888,3.888 -2.147284,0 -3.888,-1.740717 -3.888,-3.888 0,-2.147283 1.740716,-3.888 3.888,-3.888 2.147283,0 3.888,1.740717 3.888,3.888 z" />
            <path
               id="path3419"
               d="m 42.828,47.209 c 0,0 8.558,-0.489 5.663,4.094 -2.892,4.581 -9.518,2.775 -10.843,1.209 -0.001,0 -4.1,-5.303 5.18,-5.303 z"
               inkscape:connector-curvature="0"
               style="fill:#df4079" />
            <path
               id="path3421"
               d="m 42.873,48.458 c 0,0 4.253,-0.138 2.814,1.155 -1.438,1.293 -4.732,0.783 -5.389,0.343 0,0 -2.039,-1.498 2.575,-1.498 z"
               inkscape:connector-curvature="0"
               style="fill:#e892a7" />
            <g
               id="g3423">
              <path
                 id="path3425"
                 d="m 2.21,85.25 c -0.819,0 -1.46,-0.641 -1.46,-1.459 V 43 C 0.75,19.703 19.703,0.75 43,0.75 66.296,0.75 85.25,19.703 85.25,43 v 40.791 c 0,0.818 -0.641,1.459 -1.459,1.459 H 2.21 z M 9.988,37.236 c -0.16,0 -0.317,0.051 -0.447,0.148 -0.166,0.123 -0.273,0.309 -0.297,0.513 -0.146,1.228 -0.221,2.478 -0.221,3.713 v 31.521 c 0,1.354 1.103,2.457 2.458,2.457 h 63.04 c 1.354,0 2.456,-1.103 2.456,-2.457 V 41.61 c 0,-1.237 -0.074,-2.485 -0.22,-3.71 -0.024,-0.205 -0.132,-0.39 -0.298,-0.513 -0.13,-0.097 -0.287,-0.148 -0.447,-0.148 -0.043,0 -0.087,0.004 -0.13,0.011 -9.526,1.671 -20.896,2.554 -32.879,2.554 -11.973,0 -23.344,-0.884 -32.884,-2.558 -0.045,-0.006 -0.088,-0.01 -0.131,-0.01 l 0,0 z"
                 inkscape:connector-curvature="0"
                 style="fill:#facc59" />
              <path
                 id="path3427"
                 d="m 43,1.5 c 22.883,0 41.5,18.617 41.5,41.5 v 40.791 c 0,0.397 -0.312,0.709 -0.709,0.709 H 43 2.21 C 1.812,84.5 1.5,84.188 1.5,83.791 V 43 C 1.5,20.117 20.116,1.5 43,1.5 M 11.48,76.338 H 43 74.52 c 1.768,0 3.206,-1.438 3.206,-3.207 V 41.61 c 0,-1.267 -0.076,-2.545 -0.226,-3.799 -0.049,-0.409 -0.264,-0.78 -0.595,-1.026 -0.26,-0.194 -0.574,-0.296 -0.895,-0.296 -0.086,0 -0.173,0.007 -0.259,0.022 -9.485,1.664 -20.81,2.543 -32.75,2.543 -11.93,0 -23.256,-0.88 -32.754,-2.546 -0.086,-0.015 -0.173,-0.022 -0.259,-0.022 -0.32,0 -0.634,0.103 -0.895,0.296 -0.331,0.246 -0.546,0.617 -0.594,1.026 -0.15,1.258 -0.226,2.537 -0.226,3.802 v 31.521 c 0,1.768 1.439,3.207 3.207,3.207 M 43,0 C 19.252,0 0,19.252 0,43 V 83.791 C 0,85.019 0.981,86 2.21,86 H 43 83.79 c 1.229,0 2.209,-0.981 2.209,-2.209 V 43 C 85.999,19.252 66.748,0 43,0 l 0,0 z M 11.48,74.838 c -0.949,0 -1.708,-0.758 -1.708,-1.707 V 41.61 c 0,-1.266 0.078,-2.469 0.215,-3.625 9.182,1.61 20.611,2.569 33.014,2.569 12.397,0 23.831,-0.956 33.009,-2.565 0.138,1.154 0.215,2.357 0.215,3.621 v 31.521 c 0,0.949 -0.758,1.707 -1.706,1.707 H 43 11.48 l 0,0 z"
                 inkscape:connector-curvature="0"
                 style="fill:#8e6e4b" />
            </g>
            <path
               id="path3429"
               d="M 0,59.333 V 83.791 C 0,85.019 0.981,86 2.21,86 H 43 83.79 c 1.229,0 2.209,-0.981 2.209,-2.209 V 59.333 H 0 z"
               inkscape:connector-curvature="0"
               style="fill:#ae8d58" />
            <line
               id="line3431"
               y2="59.333"
               x2="85.999001"
               y1="59.333"
               x1="0"
               style="fill:none;stroke:#8e6e4b;stroke-width:1.5" />
            <rect
               id="rect3433"
               height="7.8340001"
               width="24.499001"
               clip-rule="evenodd"
               y="63.969002"
               x="30.75"
               style="fill:#4e5c6e;fill-rule:evenodd;stroke:#8e6e4b;stroke-width:1.5" />
            <g
               id="g3435">
              <path
                 id="path3437"
                 d="m 26.337,15.394 c -0.509,-0.59 -0.288,-1.074 0.492,-1.074 h 5.866 c 0.78,0 1.417,-0.638 1.417,-1.417 V 2.417 c 0,-0.78 0.637,-1.44 1.417,-1.469 l 6.369,-0.231 c 0.779,-0.028 2.054,-0.013 2.831,0.034 l 6.163,0.371 c 0.778,0.047 1.415,0.723 1.415,1.503 V 13.59 c 0,0.78 0.638,1.417 1.417,1.417 h 6.075 c 0.779,0 1,0.483 0.491,1.073 L 44.53,34.356 c -0.51,0.59 -1.343,0.59 -1.852,0 L 26.337,15.394 z"
                 clip-rule="evenodd"
                 inkscape:connector-curvature="0"
                 style="fill:#00a055;fill-rule:evenodd" />
            </g>
            <line
               id="line3439"
               y2="53.771999"
               x2="19.625"
               y1="52.178001"
               x1="34.542999"
               style="fill:none;stroke:#4e5c6e;stroke-width:1.5" />
            <line
               id="line3441"
               y2="60.256001"
               x2="24.625"
               y1="55.044998"
               x1="36.548"
               style="fill:none;stroke:#4e5c6e;stroke-width:1.5" />
            <line
               id="line3443"
               y2="55.214001"
               x2="65.749001"
               y1="52.332001"
               x1="51.095001"
               style="fill:none;stroke:#4e5c6e;stroke-width:1.5" />
            <line
               id="line3445"
               y2="59.414001"
               x2="59.467999"
               y1="54.203999"
               x1="49.09"
               style="fill:none;stroke:#4e5c6e;stroke-width:1.5" />
            <g
               id="g3447">
              <path
                 id="path3449"
                 d="M 43,0 C 32.865,0 23.553,3.509 16.205,9.375 15.911,9.61 15.619,9.85 15.331,10.092 c -0.109,0.092 -0.149,0.136 -0.124,0.136 0.364,0 14.028,-8.799 27.251,-8.895 0.082,0 0.165,-10e-4 0.247,-10e-4 13.727,0 26.986,8.283 27.348,8.283 0.028,0 -0.025,-0.053 -0.169,-0.167 C 62.524,3.538 53.175,0 43,0 l 0,0 z"
                 inkscape:connector-curvature="0"
                 style="fill:#8e6e4b" />
            </g>
          </g>
        </g>
      </g>
    </g>
  </g>
</svg>
